<svg xmlns="http://www.w3.org/2000/svg" viewBox="0 0 4000 4000"><defs><style>.cls-1{fill:#fff;}</style></defs><g id="Layer_3" data-name="Layer 3"><circle cx="2000" cy="2000" r="2000"/></g><g id="Layer_4" data-name="Layer 4"><path class="cls-1" d="M1863.94,518.88V293.27l-15.29,19h-94l106.55-126.94h73.66V518.88Z" transform="translate(0 0)"/><path class="cls-1" d="M1961.69,518.88V389.63q0-27.79,19.92-47.48t47.71-19.69h189V256.21H2032.57v26.87h-70.88V252.5q0-27.8,19.92-47.48t47.71-19.69h192.26q27.8,0,47.72,19.69t19.92,47.48v73.66q0,27.79-19.92,47.72t-47.72,19.92h-189V448h256.65v70.88Z" transform="translate(0 0)"/><path class="cls-1" d="M2837,763.23V537.61l-15.29,19h-94l106.55-126.94h73.66V763.23Z" transform="translate(0 0)"/><path class="cls-1" d="M3341,1374.87V1245.62q0-27.81,19.92-47.49t47.72-19.69h189v-66.25H3411.85v26.87H3341v-30.57q0-27.79,19.92-47.49t47.72-19.69h192.25q27.79,0,47.72,19.69t19.92,47.49v73.66q0,27.8-19.92,47.71t-47.72,19.92h-189V1304H3668.5v70.88Z" transform="translate(0 0)"/><path class="cls-1" d="M3564.57,2175.58q-27.8,0-47.72-19.92t-19.92-47.26v-25.94h70.88v22.24h185.77v-61.62h-202V1972.2h189.47v-59.3H3567.81v25.95h-70.88V1909.2q0-27.79,19.92-47.49t47.72-19.69h180.21q27.79,0,47.48,19.69T3812,1909.2v66.71a92,92,0,0,1-.69,10.88,62.39,62.39,0,0,1-2.09,10.43,67.35,67.35,0,0,1,11.12,19.22,63.61,63.61,0,0,1,4.17,22.94v69q0,27.34-19.69,47.26t-47.48,19.92Z" transform="translate(0 0)"/><path class="cls-1" d="M3560.3,3022.31v-82.93H3360.63v-63.47l207.08-187.16h63.47V2868h44.47v71.34h-44.47v82.93ZM3476,2868h84.31v-68.57Z" transform="translate(0 0)"/><path class="cls-1" d="M2762.48,3611.93q-27.8,0-47.72-19.92t-19.92-47.25v-25.94h70.88v22.23h185.77v-62.54H2694.84V3278.38h327.53v70.88H2765.72v57.91h189q27.8,0,47.71,19.69t19.92,47.48v70.42q0,27.34-19.92,47.25t-47.71,19.92Z" transform="translate(0 0)"/><path class="cls-1" d="M1911.8,3844.48q-27.79,0-47.72-19.92t-19.92-47.26V3578.1q0-27.79,19.92-47.49t47.72-19.69h209.39v70.88H1915v57.91h189q27.79,0,47.72,19.69t19.92,47.49v70.41q0,27.35-19.92,47.26t-47.72,19.92Zm18.53-70.88h170.48v-62.54H1915v62.54Z" transform="translate(0 0)"/><path class="cls-1" d="M1210.67,3601.65V3338.51H1004.51v-70.88h209.86q27.81,0,47.49,19.69t19.69,47.49v266.84Z" transform="translate(0 0)"/><path class="cls-1" d="M415.51,3013.39q-27.79,0-47.71-19.92t-19.92-47.25V2875.8a57.77,57.77,0,0,1,2.31-16,123.31,123.31,0,0,1,5.56-15.52,122.19,122.19,0,0,1-5.56-15.52,59.36,59.36,0,0,1-2.31-16.45V2747q0-27.8,19.92-47.48t47.71-19.69H607.77A67.86,67.86,0,0,1,652,2695.59q19.22,15.75,23.4,39.38v77.36a67.85,67.85,0,0,1-2.09,16,75.39,75.39,0,0,1-5.79,16,58.27,58.27,0,0,1,6,15.29,70.81,70.81,0,0,1,1.86,16.21v70.42q0,27.34-19.92,47.25t-47.72,19.92ZM434,2813.26H604.53v-62.08H418.76v62.08Zm0,129.25H604.53V2880H418.76v62.54Z" transform="translate(0 0)"/><path class="cls-1" d="M231.48,2174.4q-25,0-44.47-20.62t-24.56-50.26H420.5v-59.3h-189q-27.79,0-47.71-19.92t-19.93-47.72V1908q0-27.8,19.93-47.49t47.71-19.69H424.2q27.8,0,47.49,19.69T491.38,1908v199.2q0,27.34-19.69,47.26T424.2,2174.4Zm19-201.52h170v-61.16H235.19v61.16Z" transform="translate(0 0)"/><path class="cls-1" d="M375.46,1354.18V1128.57l-15.29,19h-94l106.55-126.93h73.66v333.55Z" transform="translate(0 0)"/><path class="cls-1" d="M540.84,1354.18q-27.8,0-47.71-22.24t-19.92-49.57V1089.66q0-27.81,19.92-48.42t47.71-20.61H733.1q27.79,0,47.72,20.61t19.92,48.42v192.71q0,27.35-19.92,49.57t-47.72,22.24Zm3.25-136.66,147.78-124.16H544.09v124.16Zm38,61.15H729.86V1154.51Z" transform="translate(0 0)"/><path class="cls-1" d="M1059.44,761.38V535.76l-15.29,19h-94l106.55-126.94h73.66V761.38Z" transform="translate(0 0)"/><path class="cls-1" d="M1240.57,761.38V535.76l-15.28,19h-94L1237.8,427.82h73.65V761.38Z" transform="translate(0 0)"/></g></svg>